HIERARCHY
ROOT Hips
{
  OFFSET 52.3884 53.5558 -8.00227
  CHANNELS 6 Xposition Yposition Zposition Zrotation Xrotation Yrotation
  JOINT spine
  {
    OFFSET 0 6.84637 0.3937
    CHANNELS 3 Zrotation Xrotation Yrotation
    JOINT spine1
    {
      OFFSET 0 9.49621 0
      CHANNELS 3 Zrotation Xrotation Yrotation
      JOINT spine2
      {
        OFFSET 0 9.09909 0
        CHANNELS 3 Zrotation Xrotation Yrotation
        JOINT Neck
        {
          OFFSET 0 23.3612 1.11378
          CHANNELS 3 Zrotation Xrotation Yrotation
          JOINT Head
          {
            OFFSET 0 7.05802 0
            CHANNELS 3 Zrotation Xrotation Yrotation
            End Site
            {
              OFFSET 0 17.0844 -5.63419
            }
          }
        }
        JOINT RightShoulder
        {
          OFFSET -3.83136 9.82631 -0.533491
          CHANNELS 3 Zrotation Xrotation Yrotation
          JOINT RightArm
          {
            OFFSET 0 12.8881 0
            CHANNELS 3 Zrotation Xrotation Yrotation
            JOINT RightArmRoll
            {
              OFFSET 0 6.50617 0
              CHANNELS 3 Zrotation Xrotation Yrotation
              JOINT RightForeArm
              {
                OFFSET 0 18.9501 0
                CHANNELS 3 Zrotation Xrotation Yrotation
                JOINT RightForeArmRoll
                {
                  OFFSET 0 7.30092 0
                  CHANNELS 3 Zrotation Xrotation Yrotation
                  JOINT RightHand
                  {
                    OFFSET 0 14.6514 0
                    CHANNELS 3 Zrotation Xrotation Yrotation
                    End Site
                    {
                      OFFSET 0 0 0
                    }
                  }
                }
              }
            }
          }
        }
        JOINT LeftShoulder
        {
          OFFSET 3.83136 9.82631 -0.533491
          CHANNELS 3 Zrotation Xrotation Yrotation
          JOINT LeftArm
          {
            OFFSET 0 12.8881 0
            CHANNELS 3 Zrotation Xrotation Yrotation
            JOINT LeftArmRoll
            {
              OFFSET 0 6.50617 0
              CHANNELS 3 Zrotation Xrotation Yrotation
              JOINT LeftForeArm
              {
                OFFSET 0 18.9501 0
                CHANNELS 3 Zrotation Xrotation Yrotation
                JOINT LeftForeArmRoll
                {
                  OFFSET 0 7.30092 0
                  CHANNELS 3 Zrotation Xrotation Yrotation
                  JOINT LeftHand
                  {
                    OFFSET 0 14.6514 0
                    CHANNELS 3 Zrotation Xrotation Yrotation
                    End Site
                    {
                      OFFSET 0 0 0
                    }
                  }
                }
              }
            }
          }
        }
      }
    }
  }
  JOINT RightUpLeg
  {
    OFFSET -6.06837 -1.11278 -0.933477
    CHANNELS 3 Zrotation Xrotation Yrotation
    JOINT RightUpLegRoll
    {
      OFFSET 0 17.1796 0
      CHANNELS 3 Zrotation Xrotation Yrotation
      JOINT RightLeg
      {
        OFFSET 0 -21.2743 0
        CHANNELS 3 Zrotation Xrotation Yrotation
        JOINT RightLegRoll
        {
          OFFSET 0 21.3439 0
          CHANNELS 3 Zrotation Xrotation Yrotation
          JOINT RightFoot
          {
            OFFSET 0 17.7652 0
            CHANNELS 3 Zrotation Xrotation Yrotation
            JOINT RightToeBase
            {
              OFFSET 0 14.8508 0
              CHANNELS 3 Zrotation Xrotation Yrotation
              End Site
              {
                OFFSET 0.0062947 7.19214 -0.829004
              }
            }
          }
        }
      }
    }
  }
  JOINT LeftUpLeg
  {
    OFFSET 6.06837 -1.11278 -0.933477
    CHANNELS 3 Zrotation Xrotation Yrotation
    JOINT LeftUpLegRoll
    {
      OFFSET 0 17.1797 0
      CHANNELS 3 Zrotation Xrotation Yrotation
      JOINT LeftLeg
      {
        OFFSET 0 21.2742 0
        CHANNELS 3 Zrotation Xrotation Yrotation
        JOINT LeftLegRoll
        {
          OFFSET 0 21.5412 0
          CHANNELS 3 Zrotation Xrotation Yrotation
          JOINT LeftFoot
          {
            OFFSET 0 17.5679 0
            CHANNELS 3 Zrotation Xrotation Yrotation
            JOINT LeftToeBase
            {
              OFFSET 0 14.8508 0
              CHANNELS 3 Zrotation Xrotation Yrotation
              End Site
              {
                OFFSET -0.0282102 7.19213 -0.829005
              }
            }
          }
        }
      }
    }
  }
}
MOTION
Frames: 6
Frame Time: 0.00208333
52.8292 67.2885 1.23688 5.63713 39.4504 -8.57211 -0.267353 0.790616 0.433438 -0.547273 5.58222 0.909945 -0.55935 7.22713 0.920498 -18.2835 12.6883 0.232057 17.9328 17.9334 -6.55588 44.0118 -4.99695 -2.02016 132.867 41.2058 -51.8159 -3.2313e-006 4.55855e-006 6.29431e-006 21.614 36.6313 -3.40201 -9.45594e-006 -1.1316e-006 -3.00217 8.03041 -4.95139 0.697728 -64.877 -8.88857 5.60758 -110.7 49.6701 41.5316 -1.66234e-006 -3.98554e-008 3.48386e-006 -40.5314 33.2419 9.04472 1.18574e-005 -2.91268e-007 3.00362 -8.03035 -4.95137 -0.697722 35.289 77.1464 144.852 180 7.01639e-015 179.454 162.145 68.1384 -168.712 1.84119e-006 -1.13921e-006 1.14316 -24.3715 71.1087 22.8064 8.13649 25.2326 -3.48774 -53.494 75.6342 -128.203 4.54188e-006 -4.6773e-006 -0.273223 -26.3938 -71.8927 -17.6321 1.72976e-006 -3.05524e-006 0.000933747 34.1084 76.2885 -32.0876 -8.13649 25.2327 3.48561 
52.8267 67.2176 1.19088 5.62065 39.4066 -8.56999 -0.266656 0.793558 0.435888 -0.545868 5.5878 0.914591 -0.557998 7.23271 0.925127 -18.2631 12.714 0.220814 17.9197 17.936 -6.56452 43.982 -5.00589 -2.02518 132.839 41.152 -51.9315 -3.2313e-006 4.55855e-006 6.29431e-006 21.5512 36.8228 -3.39956 -9.45594e-006 -1.1316e-006 -3.00217 8.03041 -4.95139 0.697728 -64.8246 -8.88437 5.60446 -110.667 49.6221 41.6994 -1.66234e-006 -3.98554e-008 3.48386e-006 -40.5193 33.4897 9.12659 1.18574e-005 -2.91268e-007 3.00362 -8.03035 -4.95137 -0.697722 35.0013 77.0963 145.157 180 7.01639e-015 179.452 162.143 68.2695 -168.687 1.84119e-006 -1.13921e-006 1.14898 -24.3685 71.1135 22.8115 8.13649 25.2326 -3.48774 -53.2328 75.5794 -128.488 4.54188e-006 -4.6773e-006 -0.273787 -26.3962 -72.0423 -17.6559 1.72976e-006 -3.05524e-006 -0.0136669 34.1082 76.2996 -32.1078 -8.13649 25.2327 3.48561 
52.8253 67.1483 1.15417 5.60358 39.3623 -8.56639 -0.265887 0.796551 0.438244 -0.544263 5.59336 0.918883 -0.556443 7.23827 0.929398 -18.2448 12.7368 0.21131 17.9132 17.9417 -6.57257 43.9546 -5.01514 -2.03066 132.809 41.0989 -52.0503 -3.2313e-006 4.55855e-006 6.29431e-006 21.4878 37.0134 -3.39581 -9.45594e-006 -1.1316e-006 -3.00216 8.03041 -4.95139 0.697728 -64.7708 -8.88244 5.60258 -110.637 49.5737 41.8701 -1.66234e-006 -3.98554e-008 3.48386e-006 -40.5056 33.7379 9.20807 1.18574e-005 -2.91268e-007 3.00362 -8.03035 -4.95137 -0.697722 34.7242 77.0455 145.452 180 7.01639e-015 179.449 162.14 68.4001 -168.661 1.84119e-006 -1.13921e-006 1.15482 -24.366 71.1181 22.8164 8.13649 25.2326 -3.48774 -52.9733 75.5256 -128.77 4.54188e-006 -4.6773e-006 -0.274404 -26.3977 -72.191 -17.679 1.72976e-006 -3.05524e-006 -0.0282899 34.1065 76.3102 -32.1265 -8.13649 25.2327 3.48561 
52.8231 67.0726 1.11391 5.58583 39.3173 -8.56159 -0.265064 0.799609 0.440613 -0.542493 5.5989 0.923025 -0.55472 7.24381 0.933514 -18.2277 12.7583 0.203515 17.9125 17.9498 -6.57986 43.9293 -5.02456 -2.03644 132.778 41.0456 -52.1712 -3.2313e-006 4.55855e-006 6.29431e-006 21.4239 37.2034 -3.39091 -9.45594e-006 -1.1316e-006 -3.00216 8.03041 -4.95139 0.697728 -64.7151 -8.88254 5.60181 -110.609 49.5248 42.0439 -1.66234e-006 -3.98554e-008 3.48386e-006 -40.4893 33.9871 9.28896 1.18574e-005 -2.91268e-007 3.00362 -8.03035 -4.95137 -0.697722 34.4551 76.9947 145.738 180 7.01638e-015 179.447 162.136 68.5305 -168.634 1.84119e-006 -1.13921e-006 1.16066 -24.3633 71.1226 22.8211 8.13649 25.2326 -3.48774 -52.7161 75.4727 -129.051 4.54188e-006 -4.6773e-006 -0.275056 -26.3978 -72.3393 -17.701 1.72976e-006 -3.05524e-006 -0.0430136 34.1035 76.3202 -32.144 -8.13649 25.2327 3.48561 
52.8234 67.0038 1.0758 5.56749 39.2714 -8.55567 -0.264189 0.802726 0.442983 -0.540568 5.60444 0.927019 -0.55284 7.24935 0.93748 -18.2119 12.7784 0.197195 17.917 17.9602 -6.58652 43.9059 -5.03417 -2.04253 132.745 40.9924 -52.2942 -3.2313e-006 4.55855e-006 6.29431e-006 21.3596 37.3925 -3.38489 -9.45594e-006 -1.1316e-006 -3.00215 8.03041 -4.95139 0.697728 -64.6579 -8.88441 5.602 -110.584 49.4755 42.2201 -1.66234e-006 -3.98554e-008 3.48386e-006 -40.4706 34.2368 9.36928 1.18574e-005 -2.91268e-007 3.00362 -8.03035 -4.95137 -0.697722 34.1938 76.9438 146.018 180 7.01638e-015 179.445 162.132 68.6606 -168.608 1.84119e-006 -1.13921e-006 1.1665 -24.3603 71.1269 22.8257 8.13649 25.2326 -3.48774 -52.4615 75.4206 -129.328 4.54188e-006 -4.6773e-006 -0.275744 -26.3968 -72.4871 -17.722 1.72976e-006 -3.05524e-006 -0.0578241 34.0992 76.3298 -32.1603 -8.13649 25.2327 3.48561 
52.8161 66.9257 1.01766 5.54864 39.2249 -8.54875 -0.263262 0.805892 0.445344 -0.5385 5.60997 0.93087 -0.550816 7.25489 0.9413 -18.1972 12.7971 0.192117 17.9259 17.9725 -6.59267 43.8841 -5.04397 -2.04892 132.712 40.9393 -52.419 -3.2313e-006 4.55855e-006 6.29431e-006 21.2948 37.5807 -3.37777 -9.45594e-006 -1.1316e-006 -3.00215 8.03041 -4.95139 0.697728 -64.5993 -8.88783 5.60303 -110.56 49.4258 42.3977 -1.66234e-006 -3.98554e-008 3.48386e-006 -40.4497 34.4865 9.44904 1.18574e-005 -2.91268e-007 3.00362 -8.03035 -4.95137 -0.697722 33.94 76.893 146.29 180 7.01638e-015 179.442 162.128 68.7904 -168.582 1.84119e-006 -1.13921e-006 1.17233 -24.357 71.131 22.8299 8.13649 25.2326 -3.48774 -52.2096 75.3693 -129.603 4.54188e-006 -4.6773e-006 -0.276468 -26.3948 -72.6344 -17.7422 1.72976e-006 -3.05524e-006 -0.0727071 34.0936 76.339 -32.1754 -8.13649 25.2327 3.48561 
